<svg width="301" height="300" viewBox="0 0 301 300" fill="none" xmlns="http://www.w3.org/2000/svg">
<path d="M251.344 131.756C247.45 112.128 237.379 94.2602 222.604 80.7652C207.828 67.2703 189.123 58.856 169.223 56.7527C149.323 54.6494 129.272 58.9673 112.002 69.0752C94.7321 79.1831 81.1485 94.5507 73.2374 112.931C64.3656 111.909 55.3785 112.709 46.8265 115.281C38.2744 117.853 30.3373 122.143 23.5011 127.89C16.6649 133.636 11.0734 140.717 7.06904 148.699C3.06468 156.682 0.731681 165.397 0.212884 174.313C-0.305913 183.228 1.00041 192.156 4.05187 200.549C7.10333 208.942 11.8357 216.623 17.9593 223.124C24.0829 229.624 31.4688 234.806 39.6648 238.353C47.8608 241.9 56.6944 243.736 65.6249 243.75H243.75C258.021 243.766 271.764 238.358 282.196 228.62C292.629 218.882 298.97 205.543 299.935 191.305C300.901 177.067 296.418 162.994 287.396 151.938C278.374 140.881 265.486 133.667 251.344 131.756Z" fill="black"/>
</svg>
