<svg width="100" height="100" viewBox="0 0 100 100" fill="none" xmlns="http://www.w3.org/2000/svg">
<path d="M88.2526 63.5186L98.9713 68.8811C100.346 69.5686 100.346 71.5311 98.9713 72.2186L51.6714 95.8748C51.1531 96.1335 50.5818 96.2681 50.0026 96.2681C49.4234 96.2681 48.8521 96.1335 48.3338 95.8748L1.03385 72.2186C0.724858 72.0628 0.465178 71.8244 0.283739 71.5297C0.1023 71.2351 0.00622867 70.8959 0.00622867 70.5498C0.00622867 70.2038 0.1023 69.8646 0.283739 69.57C0.465178 69.2753 0.724858 69.0368 1.03385 68.8811L11.7588 63.5186L44.9901 80.1373C48.1463 81.7123 51.8651 81.7123 55.0151 80.1373L88.2464 63.5123L88.2526 63.5186ZM48.3338 0.393591C48.8521 0.134982 49.4234 0.000366211 50.0026 0.000366211C50.5818 0.000366211 51.1531 0.134982 51.6714 0.393591L98.9713 24.0436C99.2801 24.2003 99.5394 24.4395 99.7205 24.7346C99.9017 25.0297 99.9976 25.3692 99.9976 25.7155C99.9976 26.0617 99.9017 26.4012 99.7205 26.6963C99.5394 26.9914 99.2801 27.2306 98.9713 27.3873L51.6714 51.0311C51.1531 51.2897 50.5818 51.4243 50.0026 51.4243C49.4234 51.4243 48.8521 51.2897 48.3338 51.0311L1.03385 27.3873C0.723221 27.2322 0.46195 26.9936 0.27934 26.6983C0.0967294 26.403 0 26.0627 0 25.7155C0 25.3683 0.0967294 25.0279 0.27934 24.7326C0.46195 24.4373 0.723221 24.1987 1.03385 24.0436L48.3338 0.393591Z" fill="black"/>
<path d="M88.2517 41.1L98.9705 46.4625C100.345 47.15 100.345 49.1125 98.9705 49.8L51.6705 73.45C51.1522 73.7086 50.5809 73.8432 50.0017 73.8432C49.4225 73.8432 48.8513 73.7086 48.333 73.45L1.03299 49.8C0.724001 49.6442 0.46432 49.4058 0.282881 49.1111C0.101442 48.8165 0.00537109 48.4772 0.00537109 48.1312C0.00537109 47.7852 0.101442 47.446 0.282881 47.1513C0.46432 46.8567 0.724001 46.6182 1.03299 46.4625L11.758 41.1L44.9892 57.7187C48.1455 59.2937 51.8642 59.2937 55.0142 57.7187L88.2517 41.1Z" fill="black"/>
</svg>
