<svg width="100" height="100" viewBox="0 0 100 100" fill="none" xmlns="http://www.w3.org/2000/svg">
<path d="M43.582 89.9219L34.0508 87.1563C33.0508 86.8751 32.4883 85.8282 32.7695 84.8282L54.0977 11.3594C54.3789 10.3594 55.4258 9.79693 56.4258 10.0782L65.957 12.8438C66.957 13.1251 67.5195 14.1719 67.2383 15.1719L45.9102 88.6407C45.6133 89.6407 44.582 90.2188 43.582 89.9219ZM25.7695 72.3907L32.5664 65.1407C33.2852 64.3751 33.2383 63.1563 32.4414 62.4532L18.2852 50.0001L32.4414 37.5469C33.2383 36.8438 33.3008 35.6251 32.5664 34.8594L25.7695 27.6094C25.0664 26.8594 23.8789 26.8126 23.1133 27.5313L0.597656 48.6251C-0.199219 49.3594 -0.199219 50.6251 0.597656 51.3594L23.1133 72.4688C23.8789 73.1876 25.0664 73.1563 25.7695 72.3907ZM76.8945 72.4844L99.4102 51.3751C100.207 50.6407 100.207 49.3751 99.4102 48.6407L76.8945 27.5157C76.1445 26.8126 74.957 26.8438 74.2383 27.5938L67.4414 34.8438C66.7227 35.6094 66.7695 36.8282 67.5664 37.5313L81.7227 50.0001L67.5664 62.4532C66.7695 63.1563 66.707 64.3751 67.4414 65.1407L74.2383 72.3907C74.9414 73.1563 76.1289 73.1876 76.8945 72.4844Z" fill="black"/>
</svg>
