<svg width="100" height="100" viewBox="0 0 100 100" fill="none" xmlns="http://www.w3.org/2000/svg">
<path d="M5 45H10V75H5C4.34317 75.0008 3.69264 74.872 3.08565 74.621C2.47867 74.37 1.92716 74.0017 1.46271 73.5373C0.998262 73.0728 0.629995 72.5213 0.379 71.9143C0.128006 71.3074 -0.000784786 70.6568 3.59771e-06 70V50C-0.000784786 49.3432 0.128006 48.6926 0.379 48.0857C0.629995 47.4787 0.998262 46.9272 1.46271 46.4627C1.92716 45.9983 2.47867 45.63 3.08565 45.379C3.69264 45.128 4.34317 44.9992 5 45ZM85 37.5V80C84.9974 82.6514 83.943 85.1934 82.0682 87.0682C80.1934 88.943 77.6514 89.9974 75 90H25C22.3486 89.9974 19.8066 88.943 17.9318 87.0682C16.057 85.1934 15.0026 82.6514 15 80V37.5C14.9995 35.8583 15.3224 34.2326 15.9504 32.7158C16.5784 31.199 17.4991 29.8208 18.66 28.66C19.8208 27.4991 21.199 26.5784 22.7158 25.9504C24.2326 25.3224 25.8583 24.9995 27.5 25H45V15C45 13.6739 45.5268 12.4021 46.4645 11.4645C47.4022 10.5268 48.6739 10 50 10C51.3261 10 52.5979 10.5268 53.5355 11.4645C54.4732 12.4021 55 13.6739 55 15V25H72.5C74.1417 24.9995 75.7674 25.3224 77.2842 25.9504C78.801 26.5784 80.1792 27.4991 81.34 28.66C82.5009 29.8208 83.4216 31.199 84.0496 32.7158C84.6776 34.2326 85.0005 35.8583 85 37.5ZM41.25 50C41.25 48.7639 40.8835 47.5555 40.1967 46.5277C39.5099 45.4999 38.5338 44.6988 37.3918 44.2258C36.2497 43.7527 34.9931 43.6289 33.7807 43.8701C32.5683 44.1112 31.4547 44.7065 30.5806 45.5806C29.7065 46.4547 29.1113 47.5683 28.8701 48.7807C28.6289 49.9931 28.7527 51.2497 29.2258 52.3918C29.6988 53.5338 30.4999 54.5099 31.5277 55.1967C32.5555 55.8834 33.7639 56.25 35 56.25C35.8208 56.2501 36.6335 56.0884 37.3919 55.7744C38.1502 55.4603 38.8392 54.9999 39.4196 54.4196C39.9999 53.8392 40.4603 53.1502 40.7744 52.3918C41.0885 51.6335 41.2501 50.8208 41.25 50ZM40 70H30V75H40V70ZM55 70H45V75H55V70ZM71.25 50C71.25 48.7639 70.8835 47.5555 70.1967 46.5277C69.5099 45.4999 68.5338 44.6988 67.3918 44.2258C66.2497 43.7527 64.9931 43.6289 63.7807 43.8701C62.5683 44.1112 61.4547 44.7065 60.5806 45.5806C59.7065 46.4547 59.1113 47.5683 58.8701 48.7807C58.6289 49.9931 58.7527 51.2497 59.2258 52.3918C59.6988 53.5338 60.4999 54.5099 61.5277 55.1967C62.5555 55.8834 63.7639 56.25 65 56.25C65.8208 56.2501 66.6335 56.0884 67.3919 55.7744C68.1502 55.4603 68.8392 54.9999 69.4196 54.4196C69.9999 53.8392 70.4603 53.1502 70.7744 52.3918C71.0885 51.6335 71.2501 50.8208 71.25 50ZM70 70H60V75H70V70ZM100 50V70C100.001 70.6568 99.872 71.3074 99.621 71.9143C99.37 72.5213 99.0018 73.0728 98.5373 73.5373C98.0729 74.0017 97.5213 74.37 96.9144 74.621C96.3074 74.872 95.6568 75.0008 95 75H90V45H95C95.6568 44.9992 96.3074 45.128 96.9144 45.379C97.5213 45.63 98.0729 45.9983 98.5373 46.4627C99.0018 46.9272 99.37 47.4787 99.621 48.0857C99.872 48.6926 100.001 49.3432 100 50Z" fill="black"/>
</svg>
