<svg width="100" height="100" viewBox="0 0 100 100" fill="none" xmlns="http://www.w3.org/2000/svg">
<path d="M99.1665 21.3085C98.729 19.5449 96.522 18.9472 95.2368 20.2324L80.7134 34.7558L67.4556 32.5468L65.2466 19.289L79.77 4.76558C81.063 3.47261 80.4399 1.26949 78.6645 0.82808C69.4106 -1.46489 59.2212 1.00581 51.9888 8.23628C44.2466 15.9785 42.1157 27.2011 45.3384 36.9863L3.66064 78.664C-1.22021 83.5449 -1.22021 91.4589 3.66064 96.3398C8.5415 101.221 16.4556 101.221 21.3364 96.3398L62.979 54.6972C72.7681 57.9609 83.9692 55.8066 91.7622 48.0136C99.0024 40.7734 101.469 30.5683 99.1665 21.3085ZM12.5005 92.1875C9.9126 92.1875 7.81299 90.0878 7.81299 87.5C7.81299 84.9101 9.9126 82.8125 12.5005 82.8125C15.0884 82.8125 17.188 84.9101 17.188 87.5C17.188 90.0878 15.0884 92.1875 12.5005 92.1875Z" fill="black"/>
</svg>
